<svg width="66" height="66" viewBox="0 0 53 60" fill="none" xmlns="http://www.w3.org/2000/svg">
<path d="M20 55C20.675 55 21.25 54.45 21.25 53.75C21.25 53.05 20.675 52.5 20 52.5C19.325 52.5 18.75 53.05 18.75 53.75C18.75 54.45 19.325 55 20 55Z" fill="#fff"/>
<path d="M38.75 55C38.325 55 37.925 54.975 37.5 54.925V57.35C37.5 57.425 37.45 57.475 37.375 57.475H2.625C2.55 57.5 2.5 57.45 2.5 57.375V50H27.05C26.325 49.225 25.65 48.4 25.075 47.5H2.5V2.625C2.5 2.55 2.55 2.5 2.625 2.5H37.375C37.45 2.5 37.5 2.55 37.5 2.625V22.55C37.925 22.525 38.325 22.475 38.75 22.475C39.175 22.475 39.575 22.5 40 22.55V2.625C40 1.175 38.825 0 37.375 0H2.625C1.175 0 0 1.175 0 2.625V57.375C0 58.825 1.175 60 2.625 60H37.375C38.825 60 40 58.825 40 57.375V54.95C39.575 54.975 39.175 55 38.75 55Z" fill="#fff"/>
<path fill-rule="evenodd" clip-rule="evenodd" d="M15 12.5C15 9.75 17.25 7.5 20 7.5C22.75 7.5 25 9.75 25 12.5C25 15.25 22.75 17.5 20 17.5C17.25 17.5 15 15.25 15 12.5ZM22.5 12.5C22.5 11.125 21.375 10 20 10C18.625 10 17.5 11.125 17.5 12.5C17.5 13.875 18.625 15 20 15C21.375 15 22.5 13.875 22.5 12.5Z" fill="#fff"/>
<path d="M15 27.5V25C15 23.625 16.125 22.5 17.5 22.5H22.5C23.875 22.5 25 23.625 25 25V27.5H27.5V25C27.5 22.25 25.25 20 22.5 20H17.5C14.75 20 12.5 22.25 12.5 25V27.5H15Z" fill="#fff"/>
<path fill-rule="evenodd" clip-rule="evenodd" d="M25 38.75C25 31.15 31.15 25 38.75 25C46.35 25 52.5 31.15 52.5 38.75C52.5 46.35 46.35 52.5 38.75 52.5C31.15 52.5 25 46.35 25 38.75ZM50 38.75C50 32.55 44.95 27.5 38.75 27.5C32.55 27.5 27.5 32.55 27.5 38.75C27.5 44.95 32.55 50 38.75 50C44.95 50 50 44.95 50 38.75Z" fill="#fff"/>
<path d="M37.35 41.25C37.35 40.05 37.825 38.975 39.025 37.925C40.25 36.875 40.725 36.175 40.725 35.175C40.725 34.15 39.925 33.5 38.8 33.5C37.675 33.5 36.725 34.225 36.725 35.45C36.725 35.7 36.775 35.975 36.85 36.175L34.725 36.65C34.55 36.275 34.475 35.825 34.475 35.225C34.475 33.25 36.125 31.225 38.75 31.225C41.425 31.225 43 32.75 43 34.975C43 36.55 42.475 37.525 40.625 39.225C39.975 39.85 39.825 40.35 39.825 41.225H37.35V41.25Z" fill="#fff"/>
<path d="M37.35 43.75H39.85V46.25H37.35V43.75Z" fill="#fff"/>
</svg>

