<svg width="66" height="66" viewBox="0 0 42 34" fill="none" xmlns="http://www.w3.org/2000/svg">
<path d="M41.4 9.39952C40.6 4.79952 36.9 1.19952 32.3 0.499517C28.4 -0.100483 24.6 1.39952 22.1 4.39952L20.9 5.79952C18.8 2.29952 15 0.199517 11 0.399517C5.4 0.599517 0.8 5.09952 0.4 10.5995C0.3 12.0995 0.5 13.5995 1 14.9995C1.3 15.7995 1.7 17.0995 4.4 19.7995C5.7 21.0995 7.2 22.4995 7.8 23.0995C10.6 25.8995 14 29.3995 16.5 31.7995C17.7 32.9995 19.4 33.5995 21 33.5995C22.6 33.5995 24.3 32.9995 25.5 31.7995L38.4 19.0995C39.5 17.9995 40.4 16.5995 41 15.0995C41.6 13.2995 41.7 11.2995 41.4 9.39952ZM12.7 15.7995C11.9 16.7995 10.9 17.4995 9.9 17.9995C8.4 18.6995 7 18.7995 5.6 18.3995C4.8 18.0995 2.9 17.2995 2 14.6995C1.6 13.3995 1.4 12.0995 1.4 10.6995C1.8 5.59952 6 1.49952 11 1.29952C14.7 1.19952 18.2 3.09952 20 6.29952C20.1 6.39952 20.1 6.49952 20.2 6.59952L12.7 15.7995Z" fill="#FFF"/>
</svg>
