<svg width="160" height="160" viewBox="0 0 46 47" fill="none" xmlns="http://www.w3.org/2000/svg">
<path d="M36.1 46.9H35.7C35 46.8 34.4 46.3 34.1 45.7L25.7 28.9L17 35.7L18.1 41.7C18.2 42.4 18 43.1 17.5 43.7L15.8 45.4C15.4 45.8 14.8 46 14.2 46H14C13.2 45.9 12.6 45.5 12.3 44.9L9.6 39.9L8.6 38L6.8 37.1L1.8 34.4C1.2 34.1 0.8 33.5 0.7 32.8C0.6 32.1 0.8 31.4 1.3 30.9L3 29.2C3.4 28.8 4 28.6 4.6 28.6H4.9L11 29.7L18.1 21.3L1.3 12.8C0.7 12.5 0.2 11.9 0.0999998 11.2C-1.86265e-07 10.5 0.2 9.8 0.7 9.3L3 7C3.4 6.6 4 6.3 4.6 6.3H4.9L27.9 10.3L32.8 5.4C34.6 3.6 39.4 0.9 42.6 0.9C43.7 0.9 44.5 1.2 45.1 1.8C45.7 2.4 46 3.3 46 4.3C46 7.5 43.3 12.3 41.5 14.1L36.6 19L40.6 41.9C40.7 42.6 40.5 43.3 40 43.9L37.7 46.2C37.3 46.7 36.7 46.9 36.1 46.9ZM26.3 26.6L35.5 45C35.6 45.2 35.8 45.3 36 45.4H36.2C36.3 45.4 36.5 45.3 36.6 45.2L38.9 42.9C39.1 42.7 39.1 42.5 39.1 42.3L34.9 18.6L40.3 13.2C41.9 11.6 44.4 7.1 44.4 4.5C44.4 3.8 44.2 3.3 43.9 3C43.6 2.7 43.1 2.5 42.4 2.5C39.7 2.5 35.3 5 33.7 6.6L28.3 12L4.5 7.9C4.4 7.9 4.2 8 4.1 8.1L1.8 10.4C1.6 10.6 1.6 10.8 1.6 11C1.6 11.2 1.8 11.4 2 11.5L20.4 20.7L11.6 31.3L4.5 30C4.4 30 4.2 30.1 4.1 30.2L2.4 32C2.2 32.2 2.2 32.4 2.2 32.6C2.2 32.8 2.4 33 2.6 33.1L7.6 35.8L9.9 36.9L11 39.1L13.7 44.1C13.8 44.3 14 44.4 14.2 44.5H14.3C14.5 44.5 14.6 44.4 14.8 44.3L16.5 42.6C16.7 42.4 16.7 42.2 16.7 42L15.4 35L26.3 26.6Z" fill="#fff"/>
</svg>
