<?xml version="1.0" encoding="UTF-8"?>
<svg version="1.1" xmlns="http://www.w3.org/2000/svg" width="476" height="114">
<path d="M0 0 C157.08 0 314.16 0 476 0 C476 37.62 476 75.24 476 114 C318.92 114 161.84 114 0 114 C0 76.38 0 38.76 0 0 Z " fill="#FDFDFE" transform="translate(0,0)"/>
<path d="M0 0 C2.64 0 5.28 0 8 0 C11.13280495 6.03982215 13.76534575 12.16873288 16.25 18.5 C16.61351563 19.4178125 16.97703125 20.335625 17.3515625 21.28125 C18.23757333 23.51959315 19.12031257 25.75916593 20 28 C22.40265025 25.59734975 23.11295487 23.53540257 24.34765625 20.37109375 C24.78787109 19.25412109 25.22808594 18.13714844 25.68164062 16.98632812 C26.13732422 15.81521484 26.59300781 14.64410156 27.0625 13.4375 C27.96780376 11.12281731 28.87523913 8.80896679 29.78515625 6.49609375 C30.38662476 4.95199829 30.38662476 4.95199829 31.00024414 3.37670898 C32 1 32 1 33 0 C35.64 0 38.28 0 41 0 C41 13.2 41 26.4 41 40 C38.36 40 35.72 40 33 40 C32.67 34.39 32.34 28.78 32 23 C29.69 28.61 27.38 34.22 25 40 C22.36 40 19.72 40 17 40 C16.03912864 38.10545176 15.08141031 36.20930419 14.125 34.3125 C13.32449219 32.72888672 13.32449219 32.72888672 12.5078125 31.11328125 C11.22353053 28.46153843 10.09425586 25.73563964 9 23 C8.67 28.61 8.34 34.22 8 40 C5.36 40 2.72 40 0 40 C0 26.8 0 13.6 0 0 Z " fill="#7A07FF" transform="translate(92,24)"/>
<path d="M0 0 C3.67125 -0.061875 7.3425 -0.12375 11.125 -0.1875 C12.84420654 -0.22846802 12.84420654 -0.22846802 14.59814453 -0.27026367 C21.52306382 -0.32672672 25.9427042 0.42543512 31.375 5 C33.85399452 9.57660528 33.75786309 13.90930348 33 19 C30.69591966 23.18147914 28.48053709 24.61809522 24 26 C21.19006055 26.13760722 18.48998076 26.19011573 15.6875 26.125 C14.94693359 26.11597656 14.20636719 26.10695313 13.44335938 26.09765625 C11.62876533 26.07424213 9.81433929 26.03837615 8 26 C8 30.62 8 35.24 8 40 C5.36 40 2.72 40 0 40 C0 26.8 0 13.6 0 0 Z " fill="#7C0BFF" transform="translate(22,24)"/>
<path d="M0 0 C4.73078277 2.13905938 7.60748324 4.45179824 9.76953125 9.31640625 C10.67917706 14.96379064 10.20667382 20.07665794 7.390625 25.08984375 C3.65367763 30.22251845 -0.82507482 34.75910219 -5.23046875 39.31640625 C-9.28435289 37.76445525 -11.61279956 34.89573916 -14.29296875 31.62890625 C-14.72673828 31.12423828 -15.16050781 30.61957031 -15.60742188 30.09960938 C-19.37742617 25.56068488 -22.6550337 20.34631317 -22.66796875 14.25390625 C-22.03492167 8.55648252 -19.84004571 5.73436691 -15.60546875 2.00390625 C-10.73519836 -1.45654903 -5.72844797 -1.75565393 0 0 Z " fill="#191919" transform="translate(424.23046875,67.68359375)"/>
<path d="M0 0 C4.14213158 1.56480526 6.22682367 4.03750039 8.2734375 7.97265625 C10.04408479 12.91333336 9.5552082 17.45126133 7.8125 22.3125 C5.16047205 26.2448173 2.50305441 28.49898186 -2 30 C-7.57210746 30.4127487 -8.94778472 30.03132917 -14 27 C-14 31.29 -14 35.58 -14 40 C-16.31 40 -18.62 40 -21 40 C-21 27.13 -21 14.26 -21 1 C-18.69 1 -16.38 1 -14 1 C-13.67 1.66 -13.34 2.32 -13 3 C-12.525625 2.505 -12.05125 2.01 -11.5625 1.5 C-7.75830343 -0.72684677 -4.30674357 -0.54799067 0 0 Z " fill="#7A06FF" transform="translate(410,35)"/>
<path d="M0 0 C3.5 1.8125 3.5 1.8125 6 4 C6.8971875 4.7734375 6.8971875 4.7734375 7.8125 5.5625 C10.92075189 9.32512071 10.40946968 14.40921495 10 19 C8.43566199 24.08409852 5.75178386 26.52742897 1.24609375 29.08203125 C-3.25511389 30.92165524 -7.37991898 30.83038001 -11.984375 29.37109375 C-16.33253386 27.29921464 -18.45885603 24.46115991 -20.34375 20.08203125 C-21.76528696 15.57203602 -21.44408525 12.1920183 -19.8125 7.8125 C-14.78814774 0.01609133 -8.69114198 -0.9083962 0 0 Z " fill="#7C09FF" transform="translate(374,35)"/>
<path d="M0 0 C2.866875 -0.0825 5.73375 -0.165 8.6875 -0.25 C9.58170654 -0.28641602 10.47591309 -0.32283203 11.3972168 -0.36035156 C15.4141334 -0.41621089 17.52466899 -0.28483343 21.05078125 1.828125 C23 4 23 4 23.5 7 C22.96640635 10.20156191 22.17622614 11.64242168 20 14 C20.99 14.33 21.98 14.66 23 15 C23.8125 18.1875 23.8125 18.1875 24 22 C21.625 24.875 21.625 24.875 19 27 C18.67 27.33 18.34 27.66 18 28 C16.65732587 28.08631874 15.31025678 28.10706473 13.96484375 28.09765625 C12.87224243 28.09390991 12.87224243 28.09390991 11.75756836 28.09008789 C10.8269458 28.08098389 9.89632324 28.07187988 8.9375 28.0625 C4.5134375 28.0315625 4.5134375 28.0315625 0 28 C0 18.76 0 9.52 0 0 Z " fill="#7905FF" transform="translate(217,36)"/>
<path d="M0 0 C4.27131698 2.2763607 4.27131698 2.2763607 6 5 C6.87236978 9.10420599 6.88478243 13.12806687 6.875 17.3125 C6.895625 18.43462891 6.91625 19.55675781 6.9375 20.71289062 C6.9845317 23.47600293 7.00444741 26.2365698 7 29 C4.69 29 2.38 29 0 29 C0 28.01 0 27.02 0 26 C-0.845625 26.66 -1.69125 27.32 -2.5625 28 C-6.50057282 30.29124237 -8.52080923 30.49768786 -13 30 C-16.38031589 28.81232145 -16.93216817 28.10174775 -19 25 C-19.78431373 18.05322129 -19.78431373 18.05322129 -16.8125 14.0625 C-11.79123081 10.38023593 -7.00570405 10.89820841 -1 11 C-1.33 9.68 -1.66 8.36 -2 7 C-4.85078091 6.23283149 -4.85078091 6.23283149 -8 6 C-9.02196992 6.97753644 -10.01979625 7.9805881 -11 9 C-14.6875 9.6875 -14.6875 9.6875 -18 10 C-18.375 7.8125 -18.375 7.8125 -18 5 C-13.31355747 -0.85805317 -7.20260814 -1.59432732 0 0 Z " fill="#7A07FF" transform="translate(318,35)"/>
<path d="M0 0 C4.27131698 2.2763607 4.27131698 2.2763607 6 5 C6.87236978 9.10420599 6.88478243 13.12806687 6.875 17.3125 C6.895625 18.43462891 6.91625 19.55675781 6.9375 20.71289062 C6.9845317 23.47600293 7.00444741 26.2365698 7 29 C4.69 29 2.38 29 0 29 C0 28.01 0 27.02 0 26 C-0.845625 26.66 -1.69125 27.32 -2.5625 28 C-6.50057282 30.29124237 -8.52080923 30.49768786 -13 30 C-16.38031589 28.81232145 -16.93216817 28.10174775 -19 25 C-19.78431373 18.05322129 -19.78431373 18.05322129 -16.8125 14.0625 C-11.79123081 10.38023593 -7.00570405 10.89820841 -1 11 C-1.33 9.68 -1.66 8.36 -2 7 C-4.85078091 6.23283149 -4.85078091 6.23283149 -8 6 C-9.02196992 6.97753644 -10.01979625 7.9805881 -11 9 C-14.6875 9.6875 -14.6875 9.6875 -18 10 C-18.375 7.8125 -18.375 7.8125 -18 5 C-13.31355747 -0.85805317 -7.20260814 -1.59432732 0 0 Z " fill="#7A07FF" transform="translate(205,35)"/>
<path d="M0 0 C2.31 0 4.62 0 7 0 C7.33 5.28 7.66 10.56 8 16 C8.61746094 14.845 9.23492187 13.69 9.87109375 12.5 C10.72479219 10.99899175 11.58035992 9.49904558 12.4375 8 C12.83904297 7.236875 13.24058594 6.47375 13.65429688 5.6875 C14.07646484 4.965625 14.49863281 4.24375 14.93359375 3.5 C15.30540771 2.8296875 15.67722168 2.159375 16.06030273 1.46875 C18 0 18 0 27 0 C27 9.24 27 18.48 27 28 C24.69 28 22.38 28 20 28 C19.67 22.72 19.34 17.44 19 12 C18.28972656 13.07121094 17.57945312 14.14242187 16.84765625 15.24609375 C15.91933146 16.64326945 14.99094274 18.04040267 14.0625 19.4375 C13.59392578 20.14455078 13.12535156 20.85160156 12.64257812 21.58007812 C12.19462891 22.25361328 11.74667969 22.92714844 11.28515625 23.62109375 C10.87144775 24.2442749 10.45773926 24.86745605 10.03149414 25.50952148 C9 27 9 27 8 28 C5.36 28 2.72 28 0 28 C0 18.76 0 9.52 0 0 Z " fill="#7A06FF" transform="translate(245,36)"/>
<path d="M0 0 C2.31 0 4.62 0 7 0 C7 3.3 7 6.6 7 10 C10.96 10 14.92 10 19 10 C19 6.7 19 3.4 19 0 C21.31 0 23.62 0 26 0 C26 9.24 26 18.48 26 28 C23.69 28 21.38 28 19 28 C19 24.37 19 20.74 19 17 C15.37 17 11.74 17 8 17 C8 20.63 8 24.26 8 28 C5.36 28 2.72 28 0 28 C0 18.76 0 9.52 0 0 Z " fill="#7904FF" transform="translate(155,36)"/>
<path d="M0 0 C2.64 0 5.28 0 8 0 C8 10.89 8 21.78 8 33 C14.6 33 21.2 33 28 33 C28 35.31 28 37.62 28 40 C18.76 40 9.52 40 0 40 C0 26.8 0 13.6 0 0 Z " fill="#7A06FF" transform="translate(60,24)"/>
<path d="M0 0 C7.92 0 15.84 0 24 0 C24 2.31 24 4.62 24 7 C21.36 7 18.72 7 16 7 C16 13.93 16 20.86 16 28 C13.36 28 10.72 28 8 28 C8 21.07 8 14.14 8 7 C5.36 7 2.72 7 0 7 C0 4.69 0 2.38 0 0 Z " fill="#7D0CFF" transform="translate(328,36)"/>
<path d="M0 0 C2.99559257 1.29011865 3.81502626 2.32340716 6 5 C6.79666742 8.16947542 6.79254555 10.82981781 6 14 C3.5625 17 3.5625 17 1 19 C0.67 19.33 0.34 19.66 0 20 C-6.71184438 20.91008059 -6.71184438 20.91008059 -9.86328125 18.68359375 C-12.7339126 15.62113024 -13.90291245 13.5631078 -14.625 9.375 C-13.90568855 5.49071819 -12.77098328 3.77098328 -10 1 C-6.75514188 -0.62242906 -3.5066405 -0.55197119 0 0 Z " fill="#F5F5F5" transform="translate(422,73)"/>
<path d="M0 0 C3.71948581 2.02145968 4.76571704 3.2695884 6.0625 7.3125 C5.98694086 11.770489 4.74232871 14.59433514 2 18 C0.08402988 19.85070593 -1.86108306 21.39581229 -4 23 C-5.13033298 21.75482035 -6.25405036 20.50363348 -7.375 19.25 C-8.00148438 18.55390625 -8.62796875 17.8578125 -9.2734375 17.140625 C-12.00512744 13.7538239 -13.01620619 11.90754666 -12.9375 7.5 C-12 4 -12 4 -9.875 1.5625 C-6.22324854 -0.42214753 -4.10477533 -0.58639648 0 0 Z " fill="#1F1F1F" transform="translate(468,24)"/>
<path d="M0 0 C6.27 0 12.54 0 19 0 C19 1.98 19 3.96 19 6 C15.04 6 11.08 6 7 6 C7 13.26 7 20.52 7 28 C4.69 28 2.38 28 0 28 C0 18.76 0 9.52 0 0 Z " fill="#7700FF" transform="translate(278,36)"/>
<path d="M0 0 C2.08268593 -0.08126087 4.16628658 -0.13930839 6.25 -0.1875 C7.99023438 -0.23970703 7.99023438 -0.23970703 9.765625 -0.29296875 C13.24931754 0.02258311 14.60186139 0.49683342 17 3 C17.44720723 6.06656388 17.63011574 8.02058097 15.921875 10.67578125 C12.95967217 12.71681125 10.35034313 12.28487183 6.8125 12.1875 C5.54019531 12.16042969 4.26789062 12.13335937 2.95703125 12.10546875 C1.98121094 12.07066406 1.00539063 12.03585938 0 12 C0 8.04 0 4.08 0 0 Z " fill="#F6EEFF" transform="translate(30,31)"/>
<path d="M0 0 C4.93731454 1.46290801 4.93731454 1.46290801 6.375 4 C6.87073337 7.89504791 6.95516848 10.09493717 4.8125 13.4375 C1.43282196 15.60396028 -0.68483987 15.56288002 -4.625 15 C-7.0625 13.375 -7.0625 13.375 -8.625 11 C-9.1875 8.0625 -9.1875 8.0625 -8.625 5 C-5.91953265 1.14675862 -4.77773264 0 0 0 Z " fill="#F9F5FF" transform="translate(369.625,42)"/>
<path d="M0 0 C3.375 1.0625 3.375 1.0625 5.3125 2.75 C6.71317538 5.79852877 6.8592732 7.74176952 6.375 11.0625 C4.8125 13.4375 4.8125 13.4375 2.375 15.0625 C-1.59987617 15.63033945 -3.68989221 15.68590519 -7.0625 13.4375 C-9.12291771 10.30566508 -9.3017545 8.74705227 -8.625 5.0625 C-5.92665364 1.21940065 -4.75860157 0.08204485 0 0 Z " fill="#F8F3FF" transform="translate(404.625,41.9375)"/>
<path d="M0 0 C3.4375 0.8125 3.4375 0.8125 5.4375 3.8125 C5.25 6.875 5.25 6.875 4.4375 9.8125 C1.18923326 11.97801116 0.20655843 12.36406953 -3.5625 11.8125 C-5.9375 10.1875 -5.9375 10.1875 -7.5625 7.8125 C-7.5 4.6875 -7.5 4.6875 -6.5625 1.8125 C-3.5625 -0.1875 -3.5625 -0.1875 0 0 Z " fill="#F4F4F4" transform="translate(465.5625,27.1875)"/>
<path d="M0 0 C-0.39143023 2.27029534 -0.88741278 3.83408198 -2.1875 5.75 C-4.78687216 7.54267046 -6.92339216 7.20510719 -10 7 C-10.33 5.68 -10.66 4.36 -11 3 C-7.16674383 0.29417212 -4.67461851 -0.32613618 0 0 Z " fill="#F3E8FF" transform="translate(317,51)"/>
<path d="M0 0 C-0.39143023 2.27029534 -0.88741278 3.83408198 -2.1875 5.75 C-4.78687216 7.54267046 -6.92339216 7.20510719 -10 7 C-10.33 5.68 -10.66 4.36 -11 3 C-7.16674383 0.29417212 -4.67461851 -0.32613618 0 0 Z " fill="#F3E8FF" transform="translate(204,51)"/>
<path d="M0 0 C0.33 1.65 0.66 3.3 1 5 C-2.3 5.33 -5.6 5.66 -9 6 C-9 5.34 -9 4.68 -9 4 C-9.99 3.67 -10.98 3.34 -12 3 C-11.01 3 -10.02 3 -9 3 C-8.67 2.01 -8.34 1.02 -8 0 C-5.13822943 -1.43088528 -3.06624227 -0.59991697 0 0 Z " fill="#E9D7FF" transform="translate(316,41)"/>
<path d="M0 0 C0.33 1.65 0.66 3.3 1 5 C-2.3 5.33 -5.6 5.66 -9 6 C-9 5.34 -9 4.68 -9 4 C-9.99 3.67 -10.98 3.34 -12 3 C-11.01 3 -10.02 3 -9 3 C-8.67 2.01 -8.34 1.02 -8 0 C-5.13822943 -1.43088528 -3.06624227 -0.59991697 0 0 Z " fill="#E9D7FF" transform="translate(203,41)"/>
<path d="M0 0 C2.64 0 5.28 0 8 0 C8.38218767 1.65614657 8.71395102 3.32457024 9 5 C8 6 8 6 6.15234375 6.09765625 C4.1015625 6.06510417 2.05078125 6.03255208 0 6 C0 4.02 0 2.04 0 0 Z " fill="#F3E9FF" transform="translate(224,52)"/>
<path d="M0 0 C2.9375 1.875 2.9375 1.875 5 4 C5 4.66 5 5.32 5 6 C4.01 6.33 3.02 6.66 2 7 C1.59910156 6.49984375 1.19820313 5.9996875 0.78515625 5.484375 C-0.89471812 3.78548309 -0.89471812 3.78548309 -3.19140625 3.890625 C-3.97386719 4.00921875 -4.75632812 4.1278125 -5.5625 4.25 C-6.74005859 4.41242187 -6.74005859 4.41242187 -7.94140625 4.578125 C-10.05183551 4.91819186 -10.05183551 4.91819186 -12 6 C-9.46532142 0.15074175 -6.15786632 -0.63702065 0 0 Z " fill="#252525" transform="translate(468,24)"/>
<path d="M0 0 C2.64 0 5.28 0 8 0 C8 1.32 8 2.64 8 4 C5.36 4 2.72 4 0 4 C0 2.68 0 1.36 0 0 Z " fill="#F6EEFF" transform="translate(224,42)"/>
<path d="M0 0 C-0.598125 0.268125 -1.19625 0.53625 -1.8125 0.8125 C-5.22084219 2.6627429 -6.85142361 4.77713542 -9 8 C-8.6875 5.125 -8.6875 5.125 -8 2 C-4.77208445 -0.1519437 -3.71599191 -0.20086443 0 0 Z " fill="#CDCDCD" transform="translate(467,27)"/>
<path d="M0 0 C0 0.66 0 1.32 0 2 C-2.64 2.66 -5.28 3.32 -8 4 C-7.67 3.01 -7.34 2.02 -7 1 C-4.52260646 0.09162237 -2.66420516 0 0 0 Z " fill="#535353" transform="translate(435,102)"/>
</svg>
