<?xml version="1.0" encoding="utf-8"?>
<!-- Generator: Adobe Illustrator 22.0.0, SVG Export Plug-In . SVG Version: 6.00 Build 0)  -->
<svg version="1.1" id="Слой_1" xmlns="http://www.w3.org/2000/svg" xmlns:xlink="http://www.w3.org/1999/xlink" x="0px" y="0px"
	 viewBox="0 0 191.8 25" xml:space="preserve">
<style type="text/css">
	.st0{fill:#FFFFFF;}
</style>
<path class="st0" d="M182.4,19.9c-0.1-0.3-4.8-12.7-4.8-12.7h-4.6v17.3h3.9v-9.8c0,0,2.4,6.5,3.4,9.4l0.2,0.5h3.9l0.2-0.5
	c1-2.8,3.4-9.4,3.4-9.4v9.8h3.9V7.2h-4.6C187.2,7.2,182.5,19.6,182.4,19.9"/>
<polygon class="st0" points="75.1,7.1 61,7.1 61,10.9 66,10.9 66,24.4 70.2,24.4 70.2,10.9 75.1,10.9 "/>
<path class="st0" d="M103.5,11c-0.2,2.8-0.5,6.1-0.8,8.9c-0.1,0.8-0.3,1.6-0.6,2.3c-0.5,1.3-1.4,2.1-2.8,2.4
	c-1.1,0.2-2.3,0.1-3.4-0.2c0.2-1.3,0.4-2.5,0.6-3.8c0.2,0,0.3,0.1,0.5,0.1c1,0.2,1.5-0.2,1.6-1.2c0.3-3.5,0.7-7.1,1-10.6
	c0,0,0.1-1.2,0.2-1.8h13.5v17.3H109V11.1C108.7,11.1,104.8,11.1,103.5,11L103.5,11z"/>
<path class="st0" d="M4.6,4.1v7.7H11c1.6,0,2.7-0.3,3.5-1c0.8-0.7,1.2-1.6,1.2-2.8c0-1.2-0.4-2.2-1.2-2.8c-0.8-0.7-2-1-3.5-1H4.6z
	 M0,24.5V0h11.1c2.8,0,5.1,0.7,6.7,2.1c1.6,1.4,2.5,3.4,2.5,5.9c0,2.5-0.8,4.5-2.5,5.9c-1.6,1.4-3.9,2.1-6.7,2.1H4.6v8.5H0z"/>
<path class="st0" d="M27,19.5c1,0.9,2.2,1.4,3.5,1.4s2.5-0.5,3.5-1.4c1-0.9,1.5-2.1,1.5-3.7c0-1.5-0.5-2.7-1.5-3.7
	c-1-0.9-2.2-1.4-3.5-1.4S28,11.2,27,12.2c-1,0.9-1.5,2.1-1.5,3.7C25.6,17.3,26,18.6,27,19.5 M37.2,9.1c1.9,1.6,2.8,3.9,2.8,6.7
	c0,2.9-0.9,5.1-2.8,6.7c-1.9,1.6-4.1,2.4-6.7,2.4s-4.8-0.8-6.7-2.4c-1.9-1.6-2.8-3.9-2.8-6.7c0-2.9,0.9-5.1,2.8-6.7
	c1.9-1.6,4.1-2.4,6.7-2.4S35.3,7.5,37.2,9.1"/>
<path class="st0" d="M55.6,17.7l3.6,2.3c-1.7,3.3-4.4,5-8.1,5c-2.6,0-4.8-0.8-6.5-2.5c-1.7-1.7-2.6-3.9-2.6-6.6
	c0-2.7,0.9-4.9,2.7-6.6c1.8-1.7,3.9-2.5,6.5-2.5c1.9,0,3.6,0.4,4.9,1.2c1.4,0.8,2.4,2,3,3.5l-3.6,2.4c-0.9-2-2.4-3-4.4-3
	c-1.3,0-2.4,0.5-3.3,1.4c-0.9,0.9-1.3,2.1-1.3,3.6c0,1.5,0.4,2.7,1.3,3.7c0.9,0.9,2,1.4,3.3,1.4c1.1,0,2-0.3,2.7-0.8
	C54.4,19.5,55.1,18.7,55.6,17.7"/>
<path class="st0" d="M85.6,10c-1.1,0-2.1,0.3-3,1c-0.9,0.7-1.4,1.6-1.8,2.6h9.3c-0.2-1.1-0.7-2-1.5-2.7C87.8,10.3,86.8,10,85.6,10
	 M94.2,16.9H80.8c0.1,1.3,0.6,2.4,1.5,3.2c0.9,0.8,1.9,1.2,3.2,1.2c2.1,0,3.7-1.1,4.8-3.2l3.3,1.9C92,23.3,89.3,25,85.5,25
	c-2.5,0-4.6-0.9-6.3-2.6c-1.7-1.7-2.6-3.9-2.6-6.6c0-2.7,0.9-4.9,2.6-6.6c1.8-1.7,3.9-2.6,6.5-2.6c2.5,0,4.5,0.8,6.1,2.4
	c1.6,1.6,2.4,3.7,2.4,6.2V16.9z"/>
<path class="st0" d="M124.5,10c-1.1,0-2.1,0.3-3,1c-0.9,0.7-1.4,1.6-1.8,2.6h9.3c-0.2-1.1-0.7-2-1.5-2.7
	C126.7,10.3,125.7,10,124.5,10 M133.1,16.9h-13.3c0.1,1.3,0.6,2.4,1.5,3.2c0.9,0.8,1.9,1.2,3.2,1.2c2.1,0,3.7-1.1,4.8-3.2l3.3,1.9
	c-1.6,3.4-4.4,5.1-8.2,5.1c-2.5,0-4.6-0.9-6.3-2.6c-1.7-1.7-2.6-3.9-2.6-6.6c0-2.7,0.9-4.9,2.6-6.6c1.8-1.7,3.9-2.6,6.5-2.6
	c2.5,0,4.5,0.8,6.1,2.4c1.6,1.6,2.4,3.7,2.4,6.2V16.9z"/>
<path class="st0" d="M157.6,19.5c1,0.9,2.2,1.4,3.5,1.4c1.4,0,2.5-0.5,3.5-1.4c1-0.9,1.5-2.1,1.5-3.7c0-1.5-0.5-2.7-1.5-3.7
	c-1-0.9-2.2-1.4-3.5-1.4c-1.4,0-2.5,0.5-3.5,1.4c-1,0.9-1.5,2.1-1.5,3.7C156.2,17.3,156.7,18.6,157.6,19.5 M167.8,9.1
	c1.9,1.6,2.8,3.9,2.8,6.7c0,2.9-0.9,5.1-2.8,6.7s-4.1,2.4-6.7,2.4c-2.6,0-4.8-0.8-6.7-2.4c-1.9-1.6-2.8-3.9-2.8-6.7
	c0-2.9,0.9-5.1,2.8-6.7c1.9-1.6,4.1-2.4,6.7-2.4C163.7,6.7,165.9,7.5,167.8,9.1"/>
<polygon class="st0" points="152.6,24.4 147.4,24.4 139.8,15.6 139.8,15.6 139.8,24.4 135.6,24.4 135.6,7.1 139.8,7.1 139.8,15.3 
	139.8,15.3 146.8,7.1 151.8,7.1 144.4,15.4 "/>
</svg>
